<svg width="124" height="82" viewBox="0 0 124 82" fill="none" xmlns="http://www.w3.org/2000/svg">
<path d="M12.9611 34.9423C12.9611 33.8377 12.0656 32.9423 10.9611 32.9423C9.85649 32.9423 8.96106 33.8377 8.96106 34.9423H12.9611ZM12.9611 81.6147L12.9611 34.9423H8.96106L8.96106 81.6147H12.9611Z" fill="black"/>
<line x1="12.4461" y1="79.6148" x2="76.8984" y2="79.7544" stroke="black" stroke-width="4"/>
<line x1="74.8958" y1="81.6147" x2="74.8958" y2="51.9814" stroke="black" stroke-width="4"/>
<path d="M71.1145 3.18347C71.1145 1.80276 69.9952 0.683471 68.6145 0.683471C67.2338 0.683471 66.1145 1.80276 66.1145 3.18347L71.1145 3.18347ZM66.1145 3.18347V25.4085H71.1145V3.18347L66.1145 3.18347Z" fill="black"/>
<line x1="41.0088" y1="1.65104" x2="77.9024" y2="32.5975" stroke="black" stroke-width="4"/>
<path d="M1.38543 33.7672C0.543883 34.4827 0.441663 35.7449 1.15712 36.5864C1.87257 37.428 3.13476 37.5302 3.97631 36.8147L1.38543 33.7672ZM40.8951 0.177538L1.38543 33.7672L3.97631 36.8147L43.486 3.22505L40.8951 0.177538Z" fill="black"/>
<path d="M61.7902 36.2567V36.6167C61.3822 36.6287 61.0702 36.6887 60.8542 36.7967C60.6502 36.9047 60.5122 37.0787 60.4402 37.3187C60.3682 37.5587 60.3322 37.9007 60.3322 38.3447V43.7627C60.3322 44.6027 60.2782 45.3347 60.1702 45.9587C60.0622 46.5827 59.8702 47.1227 59.5942 47.5787C59.2942 48.0827 58.8562 48.4907 58.2802 48.8027C57.7042 49.1027 57.0442 49.2527 56.3002 49.2527C55.7242 49.2527 55.1722 49.1807 54.6442 49.0367C54.1282 48.9047 53.6722 48.6527 53.2762 48.2807C52.9282 47.9447 52.6522 47.5907 52.4482 47.2187C52.2562 46.8467 52.1242 46.3907 52.0522 45.8507C51.9802 45.3107 51.9442 44.6327 51.9442 43.8167V38.1647C51.9442 37.7207 51.9082 37.3967 51.8362 37.1927C51.7642 36.9767 51.6202 36.8327 51.4042 36.7607C51.2002 36.6767 50.8942 36.6287 50.4862 36.6167V36.2567C50.7382 36.2687 51.0682 36.2807 51.4762 36.2927C51.8842 36.3047 52.3222 36.3107 52.7902 36.3107C53.2102 36.3107 53.6242 36.3047 54.0322 36.2927C54.4522 36.2807 54.8002 36.2687 55.0762 36.2567V36.6167C54.6682 36.6287 54.3562 36.6767 54.1402 36.7607C53.9362 36.8327 53.7982 36.9767 53.7262 37.1927C53.6542 37.3967 53.6182 37.7207 53.6182 38.1647V44.1227C53.6182 44.7347 53.6482 45.3167 53.7082 45.8687C53.7682 46.4087 53.8882 46.8887 54.0682 47.3087C54.2602 47.7167 54.5482 48.0407 54.9322 48.2807C55.3162 48.5087 55.8262 48.6227 56.4622 48.6227C57.3742 48.6227 58.0762 48.4247 58.5682 48.0287C59.0722 47.6207 59.4202 47.0627 59.6122 46.3547C59.8162 45.6467 59.9182 44.8487 59.9182 43.9607V38.3447C59.9182 37.9007 59.8642 37.5587 59.7562 37.3187C59.6602 37.0787 59.4922 36.9047 59.2522 36.7967C59.0122 36.6887 58.6882 36.6287 58.2802 36.6167V36.2567C58.4962 36.2687 58.7782 36.2807 59.1262 36.2927C59.4862 36.3047 59.8162 36.3107 60.1162 36.3107C60.4282 36.3107 60.7342 36.3047 61.0342 36.2927C61.3462 36.2807 61.5982 36.2687 61.7902 36.2567ZM74.3298 36.2567V36.6167C73.9218 36.6287 73.6098 36.6887 73.3938 36.7967C73.1898 36.9047 73.0518 37.0787 72.9798 37.3187C72.9078 37.5587 72.8718 37.9007 72.8718 38.3447V49.0907C72.7998 49.0907 72.7278 49.0907 72.6558 49.0907C72.5958 49.0907 72.5298 49.0907 72.4578 49.0907L64.8978 37.4087V46.9127C64.8978 47.3447 64.9338 47.6867 65.0058 47.9387C65.0898 48.1787 65.2458 48.3527 65.4738 48.4607C65.7138 48.5567 66.0678 48.6167 66.5358 48.6407V49.0007C66.3198 48.9767 66.0378 48.9647 65.6898 48.9647C65.3418 48.9527 65.0118 48.9467 64.6998 48.9467C64.3998 48.9467 64.0938 48.9527 63.7818 48.9647C63.4818 48.9647 63.2298 48.9767 63.0258 49.0007V48.6407C63.4338 48.6167 63.7398 48.5567 63.9438 48.4607C64.1598 48.3527 64.3038 48.1787 64.3758 47.9387C64.4478 47.6867 64.4838 47.3447 64.4838 46.9127V38.1647C64.4838 37.7207 64.4478 37.3967 64.3758 37.1927C64.3038 36.9767 64.1598 36.8327 63.9438 36.7607C63.7398 36.6767 63.4338 36.6287 63.0258 36.6167V36.2567C63.2298 36.2687 63.4818 36.2807 63.7818 36.2927C64.0938 36.3047 64.3998 36.3107 64.6998 36.3107C64.9638 36.3107 65.2158 36.3047 65.4558 36.2927C65.6958 36.2807 65.9118 36.2687 66.1038 36.2567L72.4578 46.0487V38.3447C72.4578 37.9007 72.4158 37.5587 72.3318 37.3187C72.2598 37.0787 72.1038 36.9047 71.8638 36.7967C71.6358 36.6887 71.2878 36.6287 70.8198 36.6167V36.2567C71.0358 36.2687 71.3178 36.2807 71.6658 36.2927C72.0258 36.3047 72.3558 36.3107 72.6558 36.3107C72.9678 36.3107 73.2738 36.3047 73.5738 36.2927C73.8858 36.2807 74.1378 36.2687 74.3298 36.2567ZM81.5337 36.0047C82.3257 36.0047 82.9737 36.1247 83.4777 36.3647C83.9937 36.5927 84.4497 36.8627 84.8457 37.1747C85.0857 37.3547 85.2657 37.3787 85.3857 37.2467C85.5177 37.1027 85.6077 36.7727 85.6557 36.2567H86.0697C86.0457 36.7007 86.0277 37.2407 86.0157 37.8767C86.0037 38.5127 85.9977 39.3527 85.9977 40.3967H85.5837C85.4997 39.8807 85.4217 39.4727 85.3497 39.1727C85.2777 38.8607 85.1877 38.5967 85.0797 38.3807C84.9837 38.1647 84.8517 37.9487 84.6837 37.7327C84.3117 37.2407 83.8437 36.8867 83.2797 36.6707C82.7157 36.4427 82.1217 36.3287 81.4977 36.3287C80.9097 36.3287 80.3757 36.4787 79.8957 36.7787C79.4277 37.0667 79.0197 37.4867 78.6717 38.0387C78.3357 38.5907 78.0717 39.2567 77.8797 40.0367C77.6997 40.8167 77.6097 41.6927 77.6097 42.6647C77.6097 43.6727 77.7117 44.5667 77.9157 45.3467C78.1197 46.1147 78.4017 46.7627 78.7617 47.2907C79.1337 47.8187 79.5657 48.2207 80.0577 48.4967C80.5617 48.7607 81.1017 48.8927 81.6777 48.8927C82.2177 48.8927 82.7817 48.7847 83.3697 48.5687C83.9577 48.3527 84.4197 48.0047 84.7557 47.5247C85.0197 47.1767 85.1997 46.7987 85.2957 46.3907C85.4037 45.9827 85.4997 45.4127 85.5837 44.6807H85.9977C85.9977 45.7727 86.0037 46.6547 86.0157 47.3267C86.0277 47.9867 86.0457 48.5447 86.0697 49.0007H85.6557C85.6077 48.4847 85.5237 48.1607 85.4037 48.0287C85.2957 47.8967 85.1097 47.9147 84.8457 48.0827C84.4017 48.3947 83.9277 48.6707 83.4237 48.9107C82.9317 49.1387 82.2957 49.2527 81.5157 49.2527C80.3757 49.2527 79.3737 48.9947 78.5097 48.4787C77.6577 47.9627 76.9917 47.2187 76.5117 46.2467C76.0437 45.2747 75.8097 44.1047 75.8097 42.7367C75.8097 41.3927 76.0557 40.2167 76.5477 39.2087C77.0397 38.2007 77.7117 37.4147 78.5637 36.8507C79.4277 36.2867 80.4177 36.0047 81.5337 36.0047ZM93.9263 36.0047C95.0663 36.0047 96.0623 36.2627 96.9143 36.7787C97.7783 37.2947 98.4443 38.0387 98.9123 39.0107C99.3923 39.9707 99.6323 41.1407 99.6323 42.5207C99.6323 43.8647 99.3863 45.0407 98.8943 46.0487C98.4143 47.0567 97.7423 47.8427 96.8783 48.4067C96.0143 48.9707 95.0243 49.2527 93.9083 49.2527C92.7683 49.2527 91.7663 48.9947 90.9023 48.4787C90.0503 47.9627 89.3843 47.2187 88.9043 46.2467C88.4363 45.2747 88.2023 44.1047 88.2023 42.7367C88.2023 41.3927 88.4483 40.2167 88.9403 39.2087C89.4323 38.2007 90.1043 37.4147 90.9563 36.8507C91.8203 36.2867 92.8103 36.0047 93.9263 36.0047ZM93.8543 36.3287C93.0743 36.3287 92.3963 36.5987 91.8203 37.1387C91.2443 37.6787 90.7943 38.4227 90.4703 39.3707C90.1583 40.3187 90.0023 41.4167 90.0023 42.6647C90.0023 43.9367 90.1763 45.0467 90.5243 45.9947C90.8843 46.9307 91.3643 47.6567 91.9643 48.1727C92.5763 48.6767 93.2483 48.9287 93.9803 48.9287C94.7603 48.9287 95.4383 48.6587 96.0143 48.1187C96.5903 47.5787 97.0343 46.8347 97.3463 45.8867C97.6703 44.9267 97.8323 43.8287 97.8323 42.5927C97.8323 41.3087 97.6523 40.1987 97.2923 39.2627C96.9443 38.3267 96.4703 37.6067 95.8703 37.1027C95.2703 36.5867 94.5983 36.3287 93.8543 36.3287Z" fill="black"/>
</svg>
